<mxfile host="app.diagrams.net" modified="2023-03-27T14:34:09.954Z" agent="Mozilla/5.0 (Windows NT 10.0; Win64; x64) AppleWebKit/537.36 (KHTML, like Gecko) Chrome/111.0.0.0 Safari/537.36 Edg/111.0.1661.54" etag="VWtpoNmP___Zb9-ci8Jf" version="21.1.1" type="onedrive">
  <diagram id="PT-GRQ63UR67YI2i5cv7" name="Page-1">
    <mxGraphModel dx="2404" dy="636" grid="1" gridSize="10" guides="1" tooltips="1" connect="1" arrows="1" fold="1" page="1" pageScale="1" pageWidth="1169" pageHeight="827" math="0" shadow="0">
      <root>
        <mxCell id="0" />
        <mxCell id="1" parent="0" />
        <mxCell id="y-J6yGq-pBBK_awrRvmF-32" style="edgeStyle=orthogonalEdgeStyle;rounded=0;orthogonalLoop=1;jettySize=auto;html=1;entryX=0.5;entryY=0;entryDx=0;entryDy=0;" parent="1" source="xkAMnYPQj86GsAya68DB-3" target="y-J6yGq-pBBK_awrRvmF-6" edge="1">
          <mxGeometry relative="1" as="geometry" />
        </mxCell>
        <mxCell id="y-J6yGq-pBBK_awrRvmF-33" style="edgeStyle=orthogonalEdgeStyle;rounded=0;orthogonalLoop=1;jettySize=auto;html=1;entryX=0.5;entryY=0;entryDx=0;entryDy=0;" parent="1" source="xkAMnYPQj86GsAya68DB-3" target="y-J6yGq-pBBK_awrRvmF-15" edge="1">
          <mxGeometry relative="1" as="geometry" />
        </mxCell>
        <mxCell id="y-J6yGq-pBBK_awrRvmF-34" style="edgeStyle=orthogonalEdgeStyle;rounded=0;orthogonalLoop=1;jettySize=auto;html=1;entryX=0.5;entryY=0;entryDx=0;entryDy=0;" parent="1" source="xkAMnYPQj86GsAya68DB-3" target="y-J6yGq-pBBK_awrRvmF-22" edge="1">
          <mxGeometry relative="1" as="geometry">
            <Array as="points">
              <mxPoint x="620" y="90" />
              <mxPoint x="410" y="90" />
            </Array>
          </mxGeometry>
        </mxCell>
        <mxCell id="y-J6yGq-pBBK_awrRvmF-35" style="edgeStyle=orthogonalEdgeStyle;rounded=0;orthogonalLoop=1;jettySize=auto;html=1;entryX=0.5;entryY=0;entryDx=0;entryDy=0;" parent="1" source="xkAMnYPQj86GsAya68DB-3" target="y-J6yGq-pBBK_awrRvmF-8" edge="1">
          <mxGeometry relative="1" as="geometry" />
        </mxCell>
        <mxCell id="y-J6yGq-pBBK_awrRvmF-36" style="edgeStyle=orthogonalEdgeStyle;rounded=0;orthogonalLoop=1;jettySize=auto;html=1;" parent="1" source="xkAMnYPQj86GsAya68DB-3" target="y-J6yGq-pBBK_awrRvmF-1" edge="1">
          <mxGeometry relative="1" as="geometry">
            <Array as="points">
              <mxPoint x="620" y="90" />
              <mxPoint x="810" y="90" />
            </Array>
          </mxGeometry>
        </mxCell>
        <mxCell id="y-J6yGq-pBBK_awrRvmF-38" style="edgeStyle=orthogonalEdgeStyle;rounded=0;orthogonalLoop=1;jettySize=auto;html=1;entryX=0.5;entryY=0;entryDx=0;entryDy=0;" parent="1" source="xkAMnYPQj86GsAya68DB-3" target="y-J6yGq-pBBK_awrRvmF-37" edge="1">
          <mxGeometry relative="1" as="geometry" />
        </mxCell>
        <mxCell id="xkAMnYPQj86GsAya68DB-3" value="project" style="rounded=1;whiteSpace=wrap;html=1;" parent="1" vertex="1">
          <mxGeometry x="560" y="20" width="120" height="60" as="geometry" />
        </mxCell>
        <mxCell id="y-J6yGq-pBBK_awrRvmF-1" value="printModule" style="swimlane;whiteSpace=wrap;html=1;" parent="1" vertex="1">
          <mxGeometry x="630" y="260" width="360" height="330" as="geometry" />
        </mxCell>
        <mxCell id="y-J6yGq-pBBK_awrRvmF-3" value="inc" style="swimlane;whiteSpace=wrap;html=1;startSize=23;" parent="y-J6yGq-pBBK_awrRvmF-1" vertex="1">
          <mxGeometry x="38" y="81" width="120" height="76" as="geometry" />
        </mxCell>
        <mxCell id="xkAMnYPQj86GsAya68DB-20" value="print_util.c" style="shape=process;whiteSpace=wrap;html=1;backgroundOutline=1;" parent="y-J6yGq-pBBK_awrRvmF-3" vertex="1">
          <mxGeometry x="15.25" y="33.5" width="89.5" height="32.5" as="geometry" />
        </mxCell>
        <mxCell id="y-J6yGq-pBBK_awrRvmF-4" value="src" style="swimlane;whiteSpace=wrap;html=1;startSize=23;" parent="y-J6yGq-pBBK_awrRvmF-1" vertex="1">
          <mxGeometry x="201" y="81" width="120" height="76" as="geometry" />
        </mxCell>
        <mxCell id="y-J6yGq-pBBK_awrRvmF-5" value="print_util.h" style="shape=process;whiteSpace=wrap;html=1;backgroundOutline=1;" parent="y-J6yGq-pBBK_awrRvmF-4" vertex="1">
          <mxGeometry x="15.25" y="33.5" width="89.5" height="32.5" as="geometry" />
        </mxCell>
        <mxCell id="xkAMnYPQj86GsAya68DB-31" value="makefile" style="shape=process;whiteSpace=wrap;html=1;backgroundOutline=1;" parent="y-J6yGq-pBBK_awrRvmF-1" vertex="1">
          <mxGeometry x="120" y="199" width="120" height="40" as="geometry" />
        </mxCell>
        <mxCell id="xkAMnYPQj86GsAya68DB-32" value="module.mk" style="shape=process;whiteSpace=wrap;html=1;backgroundOutline=1;" parent="y-J6yGq-pBBK_awrRvmF-1" vertex="1">
          <mxGeometry x="120" y="239" width="120" height="40" as="geometry" />
        </mxCell>
        <mxCell id="AFf4AgVq9BYPSn7iIZb8-2" style="edgeStyle=orthogonalEdgeStyle;rounded=0;orthogonalLoop=1;jettySize=auto;html=1;entryX=1;entryY=0.5;entryDx=0;entryDy=0;" edge="1" parent="y-J6yGq-pBBK_awrRvmF-1" source="y-J6yGq-pBBK_awrRvmF-5" target="xkAMnYPQj86GsAya68DB-20">
          <mxGeometry relative="1" as="geometry" />
        </mxCell>
        <mxCell id="y-J6yGq-pBBK_awrRvmF-6" value="makefile" style="shape=process;whiteSpace=wrap;html=1;backgroundOutline=1;" parent="1" vertex="1">
          <mxGeometry x="-170" y="260" width="120" height="40" as="geometry" />
        </mxCell>
        <mxCell id="y-J6yGq-pBBK_awrRvmF-7" value="common.mk" style="shape=process;whiteSpace=wrap;html=1;backgroundOutline=1;" parent="1" vertex="1">
          <mxGeometry x="-170" y="300" width="120" height="40" as="geometry" />
        </mxCell>
        <mxCell id="y-J6yGq-pBBK_awrRvmF-8" value="mainModule" style="swimlane;whiteSpace=wrap;html=1;" parent="1" vertex="1">
          <mxGeometry x="1030" y="260" width="360" height="330" as="geometry" />
        </mxCell>
        <mxCell id="y-J6yGq-pBBK_awrRvmF-9" value="makefile" style="shape=process;whiteSpace=wrap;html=1;backgroundOutline=1;" parent="y-J6yGq-pBBK_awrRvmF-8" vertex="1">
          <mxGeometry x="120" y="200" width="120" height="40" as="geometry" />
        </mxCell>
        <mxCell id="y-J6yGq-pBBK_awrRvmF-10" value="module.mk" style="shape=process;whiteSpace=wrap;html=1;backgroundOutline=1;" parent="y-J6yGq-pBBK_awrRvmF-8" vertex="1">
          <mxGeometry x="120" y="240" width="120" height="40" as="geometry" />
        </mxCell>
        <mxCell id="y-J6yGq-pBBK_awrRvmF-11" value="inc" style="swimlane;whiteSpace=wrap;html=1;startSize=23;" parent="y-J6yGq-pBBK_awrRvmF-8" vertex="1">
          <mxGeometry x="40" y="80" width="120" height="76" as="geometry" />
        </mxCell>
        <mxCell id="y-J6yGq-pBBK_awrRvmF-12" value="main.c" style="shape=process;whiteSpace=wrap;html=1;backgroundOutline=1;" parent="y-J6yGq-pBBK_awrRvmF-11" vertex="1">
          <mxGeometry x="15.25" y="33.5" width="89.5" height="32.5" as="geometry" />
        </mxCell>
        <mxCell id="y-J6yGq-pBBK_awrRvmF-13" value="src" style="swimlane;whiteSpace=wrap;html=1;startSize=23;" parent="y-J6yGq-pBBK_awrRvmF-8" vertex="1">
          <mxGeometry x="200" y="81" width="120" height="76" as="geometry" />
        </mxCell>
        <mxCell id="y-J6yGq-pBBK_awrRvmF-14" value="main.h" style="shape=process;whiteSpace=wrap;html=1;backgroundOutline=1;" parent="y-J6yGq-pBBK_awrRvmF-13" vertex="1">
          <mxGeometry x="15.25" y="33.5" width="89.5" height="32.5" as="geometry" />
        </mxCell>
        <mxCell id="AFf4AgVq9BYPSn7iIZb8-3" style="edgeStyle=orthogonalEdgeStyle;rounded=0;orthogonalLoop=1;jettySize=auto;html=1;entryX=1;entryY=0.5;entryDx=0;entryDy=0;" edge="1" parent="y-J6yGq-pBBK_awrRvmF-8" source="y-J6yGq-pBBK_awrRvmF-14" target="y-J6yGq-pBBK_awrRvmF-12">
          <mxGeometry relative="1" as="geometry" />
        </mxCell>
        <mxCell id="y-J6yGq-pBBK_awrRvmF-15" value="obj" style="swimlane;whiteSpace=wrap;html=1;" parent="1" vertex="1">
          <mxGeometry x="-10" y="260" width="200" height="330" as="geometry" />
        </mxCell>
        <mxCell id="y-J6yGq-pBBK_awrRvmF-18" value="module2" style="swimlane;whiteSpace=wrap;html=1;startSize=23;" parent="y-J6yGq-pBBK_awrRvmF-15" vertex="1">
          <mxGeometry x="40" y="140" width="120" height="76" as="geometry" />
        </mxCell>
        <mxCell id="y-J6yGq-pBBK_awrRvmF-19" value="print_util.o" style="shape=process;whiteSpace=wrap;html=1;backgroundOutline=1;" parent="y-J6yGq-pBBK_awrRvmF-18" vertex="1">
          <mxGeometry x="15.25" y="33.5" width="89.5" height="32.5" as="geometry" />
        </mxCell>
        <mxCell id="y-J6yGq-pBBK_awrRvmF-20" value="module3" style="swimlane;whiteSpace=wrap;html=1;startSize=23;" parent="y-J6yGq-pBBK_awrRvmF-15" vertex="1">
          <mxGeometry x="40" y="240" width="120" height="76" as="geometry" />
        </mxCell>
        <mxCell id="y-J6yGq-pBBK_awrRvmF-21" value="main.o" style="shape=process;whiteSpace=wrap;html=1;backgroundOutline=1;" parent="y-J6yGq-pBBK_awrRvmF-20" vertex="1">
          <mxGeometry x="15.25" y="33.5" width="89.5" height="32.5" as="geometry" />
        </mxCell>
        <mxCell id="y-J6yGq-pBBK_awrRvmF-29" value="module1" style="swimlane;whiteSpace=wrap;html=1;startSize=23;" parent="y-J6yGq-pBBK_awrRvmF-15" vertex="1">
          <mxGeometry x="40" y="40" width="120" height="76" as="geometry" />
        </mxCell>
        <mxCell id="y-J6yGq-pBBK_awrRvmF-30" value="string_util.o" style="shape=process;whiteSpace=wrap;html=1;backgroundOutline=1;" parent="y-J6yGq-pBBK_awrRvmF-29" vertex="1">
          <mxGeometry x="15.25" y="33.5" width="89.5" height="32.5" as="geometry" />
        </mxCell>
        <mxCell id="y-J6yGq-pBBK_awrRvmF-22" value="stringModule" style="swimlane;whiteSpace=wrap;html=1;" parent="1" vertex="1">
          <mxGeometry x="230" y="260" width="360" height="330" as="geometry" />
        </mxCell>
        <mxCell id="y-J6yGq-pBBK_awrRvmF-23" value="makefile" style="shape=process;whiteSpace=wrap;html=1;backgroundOutline=1;" parent="y-J6yGq-pBBK_awrRvmF-22" vertex="1">
          <mxGeometry x="120" y="200" width="120" height="40" as="geometry" />
        </mxCell>
        <mxCell id="y-J6yGq-pBBK_awrRvmF-24" value="module.mk" style="shape=process;whiteSpace=wrap;html=1;backgroundOutline=1;" parent="y-J6yGq-pBBK_awrRvmF-22" vertex="1">
          <mxGeometry x="120" y="240" width="120" height="40" as="geometry" />
        </mxCell>
        <mxCell id="y-J6yGq-pBBK_awrRvmF-25" value="inc" style="swimlane;whiteSpace=wrap;html=1;startSize=23;" parent="y-J6yGq-pBBK_awrRvmF-22" vertex="1">
          <mxGeometry x="40" y="80" width="120" height="76" as="geometry" />
        </mxCell>
        <mxCell id="y-J6yGq-pBBK_awrRvmF-26" value="string_util.c" style="shape=process;whiteSpace=wrap;html=1;backgroundOutline=1;" parent="y-J6yGq-pBBK_awrRvmF-25" vertex="1">
          <mxGeometry x="15.25" y="33.5" width="89.5" height="32.5" as="geometry" />
        </mxCell>
        <mxCell id="y-J6yGq-pBBK_awrRvmF-27" value="src" style="swimlane;whiteSpace=wrap;html=1;startSize=23;" parent="y-J6yGq-pBBK_awrRvmF-22" vertex="1">
          <mxGeometry x="200" y="80" width="120" height="76" as="geometry" />
        </mxCell>
        <mxCell id="y-J6yGq-pBBK_awrRvmF-28" value="string_util.h" style="shape=process;whiteSpace=wrap;html=1;backgroundOutline=1;" parent="y-J6yGq-pBBK_awrRvmF-27" vertex="1">
          <mxGeometry x="15.25" y="33.5" width="89.5" height="32.5" as="geometry" />
        </mxCell>
        <mxCell id="AFf4AgVq9BYPSn7iIZb8-1" style="edgeStyle=orthogonalEdgeStyle;rounded=0;orthogonalLoop=1;jettySize=auto;html=1;entryX=1;entryY=0.5;entryDx=0;entryDy=0;" edge="1" parent="y-J6yGq-pBBK_awrRvmF-22" source="y-J6yGq-pBBK_awrRvmF-28" target="y-J6yGq-pBBK_awrRvmF-26">
          <mxGeometry relative="1" as="geometry" />
        </mxCell>
        <mxCell id="y-J6yGq-pBBK_awrRvmF-37" value="bin" style="swimlane;whiteSpace=wrap;html=1;" parent="1" vertex="1">
          <mxGeometry x="1430" y="260" width="200" height="100" as="geometry" />
        </mxCell>
        <mxCell id="y-J6yGq-pBBK_awrRvmF-39" value="myprogram" style="shape=process;whiteSpace=wrap;html=1;backgroundOutline=1;" parent="y-J6yGq-pBBK_awrRvmF-37" vertex="1">
          <mxGeometry x="40" y="41" width="120" height="40" as="geometry" />
        </mxCell>
        <mxCell id="AFf4AgVq9BYPSn7iIZb8-4" style="edgeStyle=none;rounded=0;orthogonalLoop=1;jettySize=auto;html=1;entryX=0.5;entryY=0;entryDx=0;entryDy=0;" edge="1" parent="1" source="y-J6yGq-pBBK_awrRvmF-13" target="y-J6yGq-pBBK_awrRvmF-4">
          <mxGeometry relative="1" as="geometry">
            <Array as="points">
              <mxPoint x="1290" y="220" />
              <mxPoint x="1100" y="220" />
              <mxPoint x="891" y="220" />
            </Array>
          </mxGeometry>
        </mxCell>
        <mxCell id="AFf4AgVq9BYPSn7iIZb8-5" style="edgeStyle=none;rounded=0;orthogonalLoop=1;jettySize=auto;html=1;" edge="1" parent="1" source="y-J6yGq-pBBK_awrRvmF-13" target="y-J6yGq-pBBK_awrRvmF-27">
          <mxGeometry relative="1" as="geometry">
            <Array as="points">
              <mxPoint x="1290" y="200" />
              <mxPoint x="890" y="200" />
              <mxPoint x="490" y="200" />
            </Array>
          </mxGeometry>
        </mxCell>
        <mxCell id="AFf4AgVq9BYPSn7iIZb8-6" style="edgeStyle=none;rounded=0;orthogonalLoop=1;jettySize=auto;html=1;" edge="1" parent="1">
          <mxGeometry relative="1" as="geometry">
            <mxPoint x="870" y="340" as="sourcePoint" />
            <mxPoint x="540" y="390" as="targetPoint" />
            <Array as="points">
              <mxPoint x="870" y="140" />
              <mxPoint x="610" y="140" />
              <mxPoint x="610" y="320" />
              <mxPoint x="610" y="390" />
            </Array>
          </mxGeometry>
        </mxCell>
      </root>
    </mxGraphModel>
  </diagram>
</mxfile>
